<svg xmlns="http://www.w3.org/2000/svg" viewBox="0 0 167.1 226.5">
  <defs>
    <linearGradient id="gradient0" x1="39.71" x2="116.92" y1="81.96" y2="14.36" gradientUnits="userSpaceOnUse">
      <stop offset="0" stop-color="#00afec"/>
      <stop offset="1" stop-color="#005bac"/>
    </linearGradient>
    <linearGradient id="gradient1" x1="30.58" x2="136.46" y1="79.62" y2="153.76" gradientUnits="userSpaceOnUse">
      <stop offset=".01" stop-color="#00afec"/>
      <stop offset=".07" stop-color="#00abe9"/>
      <stop offset=".12" stop-color="#009edf"/>
      <stop offset=".18" stop-color="#008ad0"/>
      <stop offset=".23" stop-color="#006dba"/>
      <stop offset=".26" stop-color="#005bac"/>
      <stop offset=".4" stop-color="#00afec"/>
      <stop offset=".57" stop-color="#005bac"/>
      <stop offset=".71" stop-color="#00afec"/>
      <stop offset=".85" stop-color="#005bac"/>
      <stop offset=".87" stop-color="#006dba"/>
      <stop offset=".9" stop-color="#008ad0"/>
      <stop offset=".93" stop-color="#009edf"/>
      <stop offset=".97" stop-color="#00abe9"/>
      <stop offset="1" stop-color="#00afec"/>
    </linearGradient>
    <linearGradient id="gradient2" x1="41.95" x2="125.61" y1="75.09" y2="158.76" gradientUnits="userSpaceOnUse">
      <stop offset=".05" stop-color="#00afec"/>
      <stop offset=".25" stop-color="#005bac"/>
      <stop offset=".32" stop-color="#007ec6"/>
      <stop offset=".39" stop-color="#0099db"/>
      <stop offset=".45" stop-color="#00a9e8"/>
      <stop offset=".5" stop-color="#00afec"/>
      <stop offset=".6" stop-color="#00acea"/>
      <stop offset=".68" stop-color="#00a2e2"/>
      <stop offset=".75" stop-color="#0091d5"/>
      <stop offset=".82" stop-color="#0079c3"/>
      <stop offset=".88" stop-color="#005bac"/>
      <stop offset=".95" stop-color="#00afec"/>
    </linearGradient>
  </defs>
  <style>
    .number__part0 { fill: url(#gradient0); }
    .number__part1 { fill: url(#gradient1); }
    .number__part2 { fill: url(#gradient2); }
    .plane { fill: #005bac; }
    .text { fill: #231815; }
  </style>
  <path class="plane" d="M166.6 8.3a8.2 8.2 0 0 0-5-1.3l-12.3 1.8C132.6-.3 133.2 0 132.8 0l-.9.3s7.3 5.9 10.3 9.5l-8.9 1.4a72.4 72.4 0 0 0-5.8-5.3l-1.5.3 2.1 6.6-2 .8c-.2.1-.5.5.1.6 2.5.4 9.4.8 10.4.8l8.8-1.1a14.8 14.8 0 0 1 2.4 3.2 13.6 13.6 0 0 1 1 4.1h1.6c.7 0 .4-.6 1.7-8.1l10.5-1.6c1.6-.4 5.3-2.2 4-3.2z"/>
  <g class="number">
    <path class="number__part0" d="M125.7 14s-31.1 1.6-63.3 27.3C32.3 65.3 3.9 97.2.1 137.8l20.1-38.6 19-17.3S56.8 31.7 125.7 14z"/>
    <path class="number__part1" d="M160.3 75.2c-12.8-12.6-44.3-4.9-61 15-14.3 17.9-24.2 31.7-24.2 31.7s-.1.2-.1.3c-8.9 22.4-31.7 38.9-47.4 29.9S13.9 110.9 34 90.8l-4.3-4.3C3.4 108.8-8.6 143 6.8 158.2c7.8 7.7 21.6 8.1 35.7 2.5s15.8-8.7 21-13.1 27.8-34.4 28.3-35.6c1.4-2.8 2.5-5.8 4.1-8.7 11.2-19.5 30.7-29.4 43.6-22s14.3 29.2 3.1 48.8a62 62 0 0 1-11.3 14.2l4.2 4.2c26.5-21.3 41.1-57.1 24.8-73.3z"/>
    <path class="number__part2" d="M131.3 144.3c-10.5 9.6-23.1 13.1-32.3 7.8-12.6-7.2-12.8-27.2-7.2-40.1 16.9-43.1-23-58.7-62.1-25.5l4.3 4.3c26.9-26.9 55.4-5.5 41.1 31.1 0 .1-.1.2-.1.3-15.9 41.8 22.2 57 60.5 26.3z"/>
  </g>
  <g class="text text--top">
    <path class="text__t" d="M8.1 191.1v.4H2.7v-.4c2.3 0 1.8.4 1.8-12.2-1.2.3-3.9-1-4.1 2.3H0l.2-3.2h10.4l.2 3.2h-.4c-.2-3.3-2.9-2-4.1-2.3 0 12.6-.5 12.2 1.8 12.2z"/>
    <path class="text__h" d="M20.7 191.1v.4h-4.3v-.4c2.2 0 1-1.3 1.4-5.6 0-2.8-1.8-2.8-3.6-.9.4 5.3-.8 6.5 1.3 6.5v.4h-4.2v-.4c2.2 0 .9-.9 1.3-11.1 0-1.2-.2-1.7-1.3-1.2v-.3l2.6-1.2h.4v6.7c2.9-3.3 5.1-1.8 5.1 1.2.3 4.6-.8 5.9 1.3 5.9z"/>
    <path class="text__e" d="M22.5 185.8c0 4.8 4.5 5.8 5.7 2.2l.3.2c-.9 5.3-7.3 4.5-7.3-1.1s7.3-6.5 7.3-1.3zm4-.6c0-3.3-3.8-3.1-4 0z"/>
    <path class="text__6" d="M42.1 178.1c-3 .1-5.1 3-5.7 5.9 2.8-2.2 6-.6 6 3s-1.6 4.8-4 4.8-4.1-3.2-4.1-5.6c0-4.4 3.4-8.5 7.4-8.5h.4zm-3.9 5.7a4.1 4.1 0 0 0-1.9.9c-1.1 7.9 4.4 8.1 4.4 3.3 0-1.6-.6-4.2-2.5-4.2z"/>
    <path class="text__0" d="M47.7 191.8c-5.5 0-5.5-14.1 0-14.1s5.5 14.1 0 14.1zm-2.2-6.4c0 1.5.2 5.8 2.2 5.8s2.3-2.6 2.3-7.1c0-1.6-.2-5.8-2.3-5.8s-2.2 2.5-2.2 7.1z"/>
    <path class="text__t" d="M57.5 182.4v.7h-2.1c0 6.6-.2 7.4.9 7.4a1.1 1.1 0 0 0 1-.8h.4c-.9 2.6-3.8 2.6-3.8-.3v-6.3h-1.4v-.4c1.1-.5 1.9-1.4 2.6-3.3h.3v3z"/>
    <path class="text__h" d="M67.1 191.1v.4h-4.3v-.4c2.2 0 1-1.3 1.4-5.6 0-2.8-1.8-2.8-3.6-.9.4 5.2-.8 6.5 1.4 6.5v.4h-4.3v-.4c2.3 0 .9-1 1.3-11.1 0-1.2-.2-1.7-1.3-1.2v-.3l2.6-1.2h.4v6.7c2.9-3.3 5.2-1.9 5.2 1.2.2 4.6-.9 5.9 1.2 5.9z"/>
    <path class="text__a" d="M74.4 187c-1.3 3-2 3.9.3 4.1v.4h-4.1v-.4c1.9-.2 1.5-1.2 6.6-13.4h.4c5.2 13.4 5.1 13.4 6.6 13.4v.4h-5v-.4c2.2-.1 1.2-1.4.1-4.1zm2.5-6.2l-2.2 5.4h4.4z"/>
    <path class="text__n" d="M87.3 184c2.9-3.4 5.2-1.8 5.2 1.2 0 5.5-.4 5.9 1.3 5.9v.4h-4.2v-.4c.9 0 1.3-.1 1.3-1.3-.3-2.8.8-6.5-1.4-6.5a3.2 3.2 0 0 0-2.2 1.3c.4 5.2-.8 6.5 1.4 6.5v.4h-4.3v-.4c2.2 0 1-1.3 1.4-6.3 0-1.2-.3-1.7-1.4-1.2v-.4l2.6-1.1h.4zm9.5 0c1.1-1.3 1.8-1.9 2.9-1.9s2.2 1.5 2.2 3.1c0 5.4-.3 5.9 1.3 5.9v.4H99v-.4c2.1 0 1-1.3 1.3-5.6 0-2.8-1.8-2.8-3.5-.9.3 5.2-.8 6.5 1.3 6.5v.4h-4.2v-.4c2.1 0 .9-1.2 1.3-6.3 0-1.2-.2-1.7-1.3-1.2l-.2-.4 2.6-1.1h.5z"/>
    <path class="text__i" d="M108 191.1v.4h-4.3v-.4c.9 0 1.4-.1 1.4-1.3 0-5.7.3-7-1.4-6.2v-.4l2.6-1.1h.4c.3 7.9-.9 9 1.3 9zm-2.2-13.8a1 1 0 0 1 0 2 1 1 0 0 1 0-2z"/>
    <path class="text__v" d="M114.4 182.7v-.3h2.8v.3c-1.1 0-1 .6-4.3 9.1h-.4c-3.6-8.9-3.2-8.9-4.6-9.1v-.3h4.1v.3c-2 0-.8 1.4 1.2 6.6 2.3-6 2.9-6.6 1.2-6.6z"/>
    <path class="text__e" d="M118.9 185.8c0 4.7 4.4 5.9 5.7 2.2l.3.2c-1 5.3-7.4 4.5-7.4-1.1s7.4-6.5 7.4-1.3zm4-.6c0-3.3-3.8-3.1-4 0z"/>
    <path class="text__r" d="M128.4 184c2.6-4.4 4.6.1 2.6.1s-1.3-1.9-2.6.9c0 5.6-.3 6.1 1.6 6.1v.4h-4.5v-.4c2.1 0 .9-1.3 1.3-6.3 0-1.2-.2-1.7-1.3-1.2l-.2-.4 2.6-1.1h.5z"/>
    <path class="text__s" d="M137.7 185.2h-.4c-.2-1.4-.8-2.5-2.3-2.5s-1.5.4-1.5 1.2 4.8 2 4.8 5.1a2.9 2.9 0 0 1-2.9 2.8c-1.5 0-2.5-.8-2.6-.2h-.4v-3.2h.4c.4 3.3 4.1 3.5 4.1 1.4s-4.5-2.1-4.5-5 1.6-3.2 3.8-2.5.9.4 1.1-.2h.4z"/>
    <path class="text__a" d="M147.2 189.7v.6c-1.6 2.2-3 1.8-3 0-.9.7-1.6 1.5-2.7 1.5a2.1 2.1 0 0 1-2.1-2.4c0-2.3 3.2-3.1 4.8-3.8 0-1.6-.1-2.9-1.6-2.9s-.6 2.7-2.1 2.7a.9.9 0 0 1-.8-1c0-2.7 6.1-3.6 6.1.2 0 5.5-.4 7.1 1.4 5.1zm-3-3.5c-1.3.5-3.2 1.2-3.2 2.8s.9 2.6 3.2.6z"/>
    <path class="text__r" d="M150.2 184h.1c2.6-4.4 4.6.1 2.5.1s-1.3-1.9-2.6.9c0 5.6-.3 6.1 1.6 6.1v.4h-4.5v-.4c2.1 0 1-1.3 1.3-6.3 0-1.2-.2-1.7-1.3-1.2v-.4l2.6-1.1h.4z"/>
    <path class="text__y" d="M153.4 182.7v-.3h4v.3c-2 0-.8 1.5 1.4 6.4 2.1-5.5 2.8-6.4 1.2-6.4v-.3h2.9v.3c-.7 0-1 .6-1.2 1.1-3.5 8.9-4.1 12.1-6.6 12.1s-1.7-2-.3-2 1.5 1.9 3.2-2.8c-3.4-7.4-3.4-8.2-4.6-8.4z"/>
  </g>
  <g class="text text--middle">
    <path class="text__i" d="M8 210.2v.3H2.6v-.3c2.2 0 1.8.1 1.8-10.5 0-1.7 0-2.2-1.8-2.2v-.3H8v.3c-1.8 0-1.8.5-1.8 2.2 0 10.6-.5 10.5 1.8 10.5z"/>
    <path class="text__n" d="M12.9 210.2v.3H8.5v-.3c2.2 0 1.8.3 1.8-11.3a2.7 2.7 0 0 0-2.5-1.4v-.3h3.4l7.8 9.9c0-9.6.4-9.6-1.8-9.6v-.3h4.4v.3c-2.3 0-1.8-.4-1.8 13.2h-.3L11.1 200c0 10.2-.4 10.2 1.8 10.2z"/>
    <path class="text__h" d="M31.2 203.4c0-5.4.4-5.9-1.8-5.9v-.3h5.4v.3c-1.8 0-1.8.5-1.8 2.2 0 10.6-.4 10.5 1.8 10.5v.3h-5.4v-.3c2.2 0 1.8-.5 1.8-6.1h-5.9c0 5.8-.3 6.1 1.8 6.1v.3h-5.4v-.3c2.4 0 1.8 0 1.8-10.5 0-1.7 0-2.2-1.8-2.2v-.3h5.4v.3c-2.1 0-1.8.4-1.8 5.9z"/>
    <path class="text__a" d="M38.6 206c-1.2 3-2 4 .3 4.2v.3h-4v-.3c1.8-.2 1.4-1.1 6.6-13.3h.3c5.2 13.2 5 13.2 6.6 13.3v.3h-5v-.3c2.2-.2 1.1-1.6.1-4.2zm2.5-6.1l-2.2 5.4h4.4z"/>
    <path class="text__u" d="M52.6 197.5v-.3H58v.3c-1.8 0-1.8.5-1.8 2.2 0 6.5-.7 10.3 3.3 10.3a4 4 0 0 0 3.3-1.7 7.4 7.4 0 0 0 .6-3.6c0-6.9.5-7.2-1.8-7.2v-.3H66v.3c-2.2 0-1.8.2-1.8 8.2 0 2.4-.9 5.1-4.8 5.1s-5-2.4-5-5.1c0-8.1.4-8.2-1.8-8.2z"/>
    <path class="text__n" d="M70.7 210.2v.3h-4.5v-.3c2.3 0 1.8.3 1.8-11.3a2.6 2.6 0 0 0-2.5-1.4v-.3H69l7.7 9.9c0-9.6.5-9.6-1.8-9.6v-.3h4.5v.3c-2.4 0-1.8-.4-1.8 13.2h-.4L68.9 200c0 10.2-.5 10.2 1.8 10.2z"/>
    <path class="text__i" d="M85 210.2v.3h-5.4v-.3c2.3 0 1.8 0 1.8-10.5 0-1.7 0-2.2-1.8-2.2v-.3H85v.3c-1.8 0-1.8.5-1.8 2.2 0 10.6-.5 10.5 1.8 10.5z"/>
    <path class="text__v" d="M96.1 198.5c0-.7-.8-.9-1.4-1v-.3h4v.3c-1.7.2-1.4.7-6.4 13.3H92l-4.7-11.3c-.5-1.2-.7-1.9-2.1-2v-.3h5.2v.3c-2.5.4-1.6 1 2.3 10.3 0 0 3.4-8.7 3.4-9.3z"/>
    <path class="text__e" d="M102.4 203.2c3.5-.1 4.6.5 4.7-2h.4v4.7h-.4c-.2-2.6-1.3-1.8-4.7-2v4.9c0 1.4.7.8 3.6 1s2.3-.8 3.3-2.6h.4l-1.1 3.3h-9.9v-.3c1.9 0 1.9-.6 1.9-2.2 0-10.6.4-10.5-1.9-10.5v-.3h9.8l.2 2.9h-.4c-.5-2.9-1.3-2.1-5.9-2.2z"/>
    <path class="text__r" d="M119.2 210.5l-4.3-6.2h-1.3c0 5.3-.4 5.9 1.8 5.9v.3H110v-.3c2.3 0 1.8 0 1.8-10.5 0-1.7 0-2.2-1.8-2.2v-.3h5.5c5.5 0 5.7 5.8 1.2 6.8 3.1 4.5 3.7 6 5.9 6.2v.3zm-5.6-6.9h.4c5.2 0 4.4-5.7 1.2-5.7l-1.6.2z"/>
    <path class="text__s" d="M130.7 201.5h-.3c-.3-4.8-5.8-4.8-5.8-1.8s7 3.3 7 7.3a3.8 3.8 0 0 1-4 3.8c-2.3 0-3.8-1.7-4 0h-.3v-4.6h.3c.5 4.9 6.3 4.7 6.3 1.7s-6.7-3.5-6.7-7.5a3.8 3.8 0 0 1 5.5-3.2c.8.4 1.5.9 1.7-.3h.3z"/>
    <path class="text__i" d="M138 210.2v.3h-5.4v-.3c2.3 0 1.8 0 1.8-10.5 0-1.7 0-2.2-1.8-2.2v-.3h5.4v.3c-1.8 0-1.8.5-1.8 2.2 0 10.6-.5 10.5 1.8 10.5z"/>
    <path class="text__t" d="M146.6 210.2v.3h-5.4v-.3c2.2 0 1.8.3 1.8-12.2-1.2.3-3.9-.9-4.1 2.3h-.4l.2-3.1H149l.2 3.1h-.4c-.2-3.2-2.9-2-4-2.3 0 12.6-.5 12.2 1.8 12.2z"/>
    <path class="text__y" d="M159.7 198.5c0-.8-.5-1-1.3-1v-.3h4.5v.3c-2 0-2.3 1.7-5.8 7.3 0 4.8-.4 5.4 1.8 5.4v.3h-5.4v-.3c2.1 0 1.8-.4 1.8-5.2-3.5-5-4-7.5-5.8-7.5v-.3h5.4v.3c-3.3 0-.2 2.7 1.8 6.5 2.5-4.2 3-5 3-5.5z"/>
  </g>
  <g class="text text--bottom">
    <path class="text__1" stroke="#231815" stroke-width=".02" d="M5.4 215.4h.2c0 10.8-.3 10.6 1.4 10.6v.3H3v-.3c1.2 0 1.3-.2 1.3-1.4 0-7.6.4-8.6-1.4-7.7v-.3z"/>
    <path class="text__9" stroke="#231815" stroke-width=".02" d="M20.9 226.2c2.5 0 4.2-2.3 4.7-4.6-2.7 1.8-4.9.2-4.9-2.4 0-5 6.7-5.4 6.7.6 0 3.1-2.5 6.7-6.3 6.7h-.2zm5-6.8c0-1.2-.5-3.6-2-3.6s-2.2 5.9.1 5.9a3.1 3.1 0 0 0 1.8-.7c0-.5.1-1 .1-1.6z"/>
    <path class="text__5" stroke="#231815" stroke-width=".02" d="M45.6 216.9h-3.2l-.7 1.5c2.1.2 4.3 1.7 4.3 4.1 0 4.2-6 5-6 2.9 0-.3.2-.5.6-.5s1 .8 2 .8c3.5 0 3.5-5.9-2.3-5.9l2.1-4.2h3.8z"/>
    <path class="text__4" stroke="#231815" stroke-width=".02" d="M65.8 223.5h-1.4v2.8h-1.3v-2.8h-4.5v-1l4.9-7.1h.9v6.9h1.4zm-2.7-6.4l-3.8 5.2h3.8z"/>
    <path class="text__tilde" stroke="#231815" stroke-width=".02" d="M78.1 222v1.3h4.1V222z"/>
    <path class="text__2" stroke="#231815" stroke-width=".02" d="M100.6 226.3h-6.3v-.3c4.1-4 5-5.4 5-7.1s-3.7-3-4.4-.5h-.3c.7-4.5 6.1-3.4 6.1-.2s-2.9 4.8-4.7 6.9c3 0 4.5.3 5-.9h.3z"/>
    <path class="text__0" stroke="#231815" stroke-width=".02" d="M120.6 220.9c0 3.9-2 5.6-3.5 5.6s-3.4-1.7-3.4-5.6c0-7.4 6.9-7.4 6.9 0zm-3.5 5.1c1.3 0 1.9-2 1.9-5.6 0-1.2-.1-4.6-1.9-4.6s-2.7 10.2 0 10.2z"/>
    <path class="text__1" stroke="#231815" stroke-width=".02" d="M136.7 215.4h.3c0 10.8-.4 10.6 1.3 10.6v.3h-4v-.3c1.9-.1 1.3.1 1.4-7.8 0-1.4-.2-1.9-1.5-1.3v-.3z"/>
    <path class="text__4" stroke="#231815" stroke-width=".02" d="M158.9 223.5h-1.5v2.8h-1.3v-2.8h-4.5v-1l5-7.1h.8v6.9h1.5zm-2.8-6.4l-3.7 5.2h3.7z"/>
  </g>
</svg>