<svg xmlns="http://www.w3.org/2000/svg" xmlns:xlink="http://www.w3.org/1999/xlink" viewBox="0 0 208.4 344">
  <defs>
    <linearGradient id="gradient" x1="103.85" x2="103.85" y1="166.29" y2="36.18" gradientUnits="userSpaceOnUse">
      <stop offset="0" stop-color="#005bac"/>
      <stop offset="0.57" stop-color="#009adc"/>
      <stop offset="1" stop-color="#00afec"/>
    </linearGradient>
  </defs>
  <style>
    .circle { fill: url(#gradient); }
    .text { fill: #a18141; }
  </style>
  <g class="circle">
    <path class="circle__part0" d="M33.1 179.3c20.4 12.2 50-.7 50-29.8 0-19-14.7-32.5-33.4-32.5-9.3 0-17.8 3.5-25.4 8.5l13.1-44.9H26.9l1.3-4h10.4l1.5-5.1H29.8l4.4-13.1h9.7l2.7-9.3h14.5l-2.7 9.3h57.8l1-3.3h-11.1l1.3-4h11l1.4-5.1H109l4.4-13.1h10.3l2.7-9.2h14.4l-2.6 9.2h41.9A103.6 103.6 0 0 0 104.2 0c-91 0-137.6 108.7-76.6 174.9a30 30 0 0 0 5.5 4.4zm-11.5-29.4h3.9v.3A24.3 24.3 0 1 0 49.7 126h-.2v-4h.2a28.2 28.2 0 1 1-28.1 28.2z"/>
    <path class="circle__part1" d="M95.7 134.2c14.6 41.2 66.6 30.1 66.6-8.2 0-25.9-28.4-43.9-58.9-24l9-30.5H54.7l-1.5 5.1h44.7l-1.4 4H52.1l-6.7 23.2 8-.7c20.9 0 36.5 12.9 42.3 31.1zm4.9-7.9h4v.3a24.2 24.2 0 1 0 24.2-24.2h-.3v-4h.3a28.2 28.2 0 1 1-28.2 28.2z"/>
    <path class="circle__part2" d="M190.7 46h-56.3l-1.4 5.1h44.1l-1.4 4h-43.9l-7.2 25.2 8-.7c26.5 0 44.6 20.8 44.6 46.7 0 43.7-52.1 62-80.7 35.8-4.7 18.7-20.1 32-39.6 35 68.2 34.7 151.5-14.3 151.5-92.9A103.8 103.8 0 0 0 190.7 46z"/>
  </g>
  <g class="text text--top">
    <path class="text__i" d="M19.7 239.9c0-4-1.3-5.6-3.6-7h15c-4.8 3.9-3.6 3.4-3.6 44.5 0 1.3 2.2 5.6 4.8 5.9H15.5c.3 0 .4.1.8-.2 2.2-1.7 3.4-3.4 3.4-6.2v-37z"/>
    <path class="text__n" d="M35.9 233.6c-.9-.9-4.5-.7 10.3-.7l30.7 38.9v-30.6c0-3.6-1.3-7.5-4.8-8.3h15c-.3.4-.4.3-.9.6a1.8 1.8 0 0 0-.7.5c-5.2 3-2.4 9.3-3.2 51.7-1.8 0-5-2-6.5-3.2s-.2-.2-30.8-38.9c.7 33.9-2.2 35.8 4 39.7H34.8c3.5-1.7 4.3-3.9 4.8-7-.1-43.5 1.1-37.7-3.7-42.7z"/>
    <path class="text__h" d="M90.7 233.4h14.4c-5.6 3.7-2.8 12.6-3.5 19.8h27.6c0-17.1-.2-12.1-.2-13.6a7.5 7.5 0 0 0-4-6.1h15.7c-.3.5 0 .3-.4.6-5 4.9-2.6 4.6-3.2 42.1 0 2.1.1 4.2 1.5 5.8s1.4 1.4 2.1 1.4h-15.1c5.4-1.5 3.1-9.3 3.6-24.1h-27.6V276c0 3.5 1.6 6.1 3.5 7.2h-15c3.8-1.3 3.7-7.7 3.7-7.2-.2-36.9 1.1-39.2-3.1-42.6z"/>
    <path class="text__a" d="M163.6 238.1a5.8 5.8 0 0 0 .4-1.9c0-1.5-.7-2.2-2.3-3.3h12l18.1 43.3a19.1 19.1 0 0 0 6 7.1h-16.2c5.2-1.8 1.7-6.3 1.7-7l-4.8-12.3h-18.6c-4.6 12.9-6.3 15.5-4.5 17.5a8.6 8.6 0 0 0 2.1 1.7h-15c.7 0 5.2-3.4 6.6-8.2v-.2zm12.6 20.5l-7.3-18.7-7.2 18.7z"/>
  </g>
  <g class="text text--middle">
    <path class="text__u" d="M18.8 291.6a3.9 3.9 0 0 0-1.3-2.1h6.4c-1.9 2.5-.7 4.6-1.1 15.6a8.3 8.3 0 0 0 .3 2.4 5 5 0 0 0 4.6 3.5c3.6 0 6.5-1.3 6.5-4.8 0-14.4.4-14.9-1.6-16.6h6.6c-2 2.2-1.2 3.1-1.4 20.3 0 1.6.3 2.9 1.7 3.3h-5.3V311c-1.8 3-7.2 3.3-10.3 2.3-5.1-1.6-5-7.7-5-7.6 0-13.8.1-13.4-.1-14.1z"/>
    <path class="text__n" d="M43.4 293.9c0-3.8-2.2-3.9-2.2-4.1h5.2l14.2 18c-.3-12.2 1.2-17.3-2.2-18h7c-.6.7-2 .2-2.3 3.7v20.8c-1 0-3.1-1.5-3.8-2.3s5 6.3-13.4-17.2c.3 15.6-1 16.5 1.8 18.4h-6.5c3.6-2 1.8-5.1 2.2-19.3z"/>
    <path class="text__i" d="M67 289.8h7c-2.3 1.9-1.7 1.5-1.7 20.6 0 .6 1 2.6 2.2 2.8h-7.8a1.6 1.6 0 0 0 1.1-.7 3.2 3.2 0 0 0 .9-2.4c-.2-18.1.8-18.8-1.7-20.3z"/>
    <path class="text__v" d="M82.3 309.5c0-.1-6.1-17-7-18.6a4.4 4.4 0 0 0-1.3-1.4h5.8c-.8 1.6 1.3 5.7 6.1 19.2l5.9-15.7c.4-.4.4-2.1-1.4-3.5h5.8l-9.7 24.7c-1.8-1.5-3.3-2.2-4.2-4.7z"/>
    <path class="text__e" d="M99 293.9c0-1.8-.2-2.9-1.4-3.9H109a3.5 3.5 0 0 0 1.7-.2v4.4c-1.7-1.9-5.4-1.6-8.1-1.4v6.3h3.3a3.5 3.5 0 0 0 2.5-.2v3.9c-1.1-1.4-3.7-1-5.8-1.2v8.4l1.9.3c3.4.5 6.7.6 9.5-1.9l-1.9 4.6H97.6c2-1.5 1.3-1.6 1.4-19.1z"/>
    <path class="text__r" d="M117.1 293c0-3.4-1.3-3.1-1.7-3.5 6.6 0 16.1-1.3 16.1 5.8 0 3.2-2.3 5.6-5.5 6.4 2.8 3.5 6.8 9.5 10.8 11.3-3.8-.1-5.2.2-5.9-.3-2.3-1-4.6-5.6-9.4-11.6a18.3 18.3 0 0 0 3.1-1.2c2.9-1.4 3-2.4 3-4.3s-3.5-4.2-6.6-3.4c0 18.1-.6 20.1 1.6 20.8h-7.2c2.5-.2 1.4-3.6 1.7-20z"/>
    <path class="text__s" d="M145.2 289.3a14.5 14.5 0 0 1 3.5.7v3.8c-8.5-5.6-14.5 1.8-6.4 5.1 15.8 6.4 8 17.8-7.5 13.9l-.8-4.5a9.3 9.3 0 0 0 3 2c7.1 3 12.6-2.2 7.9-5.7a41.1 41.1 0 0 0-5.9-3.3c-.4.2-2.1-1.1-2.4-1.4-4.7-4-2.8-11.2 8.6-10.6z"/>
    <path class="text__i" d="M153.2 289.8h7a4.2 4.2 0 0 0-1.7 3.7c0 18.2-.1 17 .3 17.7s1 1.9 1.9 2h-7.8c.6 0 2-1.3 2-3 0-18.9.6-19.1-1.7-20.4z"/>
    <path class="text__t" d="M166.8 292.1c-.8.1-4.7-.5-7.4 1.5l1-4.5c.7.6.4.2 15.9.3a4.5 4.5 0 0 0 1.9-.2l-1.3 4.3c-.9-1.9-5.3-1.2-6.4-1.4.3 20.8-.9 19.1 1.5 20.7.4.2.2.2.4.2h-7.2c2.7-.9 1.3-3.3 1.6-20.9z"/>
    <path class="text__y" d="M185.2 302.8c-7-11.6-6.6-11.7-9.4-13.3 6.7.2 4.3-2 11.6 10.2l4.7-7c.7-.3.4-2.8-1.1-3.2h7l-9.2 13.4c0 8-.3 8.3.9 9.5s.8.7 1 .7h-7.2c2.7-1 1.3-4.7 1.7-10.3z"/>
  </g>
  <g class="text text--bottom">
    <path class="text__1" d="M20.1 323.5h-4.4l2.8-1.2c2.3-1.4 5.4-5.1 5.6-5.3.5 22-1.3 23.6 1.7 26.1H18c2.8-1.9 2-3.7 2.1-19.6z"/>
    <path class="text__9" d="M47.1 332.8c3.9-11.9-10.9-15.9-10.9-6.1 0 4.5 4.3 7.9 9.8 4.4-2.2 2.6-2 4.1-6.2 4.1-10.3-.9-10-16.5 1.9-16.5 15.8 0 12.4 24.6-7 25.3l2.1-2.3c3.6-.6 8.9-4.7 10.3-8.9z"/>
    <path class="text__5" d="M67 336c0-5.6-7.1-6.1-12.1-4.1l.8-13H69v4.6c-1.7-1.9-7.6-1.7-10.1-1.4l-.3 6 .9-.2c7.8-1.6 14.2 4.5 10.7 11.4-2.2 4.2-9.8 5.1-14.7 3.8l-1.5-3.8c3.1 2.1 13 2.6 13-3.3z"/>
    <path class="text__4" d="M84.9 338.2H72.5l-.3-.3 11.2-19h5.2v16.4a7.8 7.8 0 0 0 4.9-1.4l-2 4.3h-2.9c.1 2.8-.3 3.1 1.6 4.8 0 .1.1.1.2.1h-7.2a2.7 2.7 0 0 0 1.6-1.7c.2-.7.1-1 .1-3.2zm0-2.9v-13.6L77.4 335z"/>
    <path class="text__tilde" d="M101.3 333.3h.1l.2-.3c.4-.4 1.9-.1 6.6-.3.7.2 1.4-.1 2.6-.5l.3.2c-3.1 2.7-1.8 3-4.4 3h-4.3a10.4 10.4 0 0 0-3.1.6l-.3-.3z"/>
    <path class="text__2" d="M124.4 328c3.9-5.5-2.1-9.1-9.5-4.1l2.3-4.7a12.4 12.4 0 0 1 10.3.6 4.7 4.7 0 0 1 2.5 5c-.4 2.1-1.7 3.2-9.6 15.1 1.7.9 9 1 12.4-1.1l-2.1 4.3h-16.4l-.3-.3c5-7.1 5.1-7.4 10.4-14.8z"/>
    <path class="text__0" d="M144.4 318.4c12.4 1.7 12 25.6-.8 25.6s-12.5-27.4.8-25.6zm-.4 22.7c6.2 0 7.2-19.6-.3-19.6s-7.5 19.6.3 19.6z"/>
    <path class="text__0" d="M164.7 318.4c12.4 1.7 12 25.6-.8 25.6s-12.5-27.4.8-25.6zm-.4 22.7c6.2 0 7.2-19.6-.3-19.6s-7.5 19.6.3 19.6z"/>
    <path class="text__9" d="M189.7 326.5c-2.5-8.6-12.4-5.4-10.9 1.8 1 3.9 4.8 5.8 9.6 2.8-2.1 2.5-1.9 3-3.1 3.5a7.1 7.1 0 0 1-5.7-.1c-8.1-3.6-5.6-15.8 4.7-15.8 6.1 0 9.7 4.4 9.8 9.2 0 9.6-8.5 15.8-17 16.1l2-2.3c4.9-.8 12.9-7.2 10.6-15.2z"/>
  </g>
</svg>